<svg xmlns="http://www.w3.org/2000/svg" viewBox="0 0 1400 850" width="100%" height="100%" style="background:#0b0f19; font-family:'Segoe UI', -apple-system, BlinkMacSystemFont, Roboto, Helvetica, Arial, sans-serif;">
  <defs>
    <!-- Gradients -->
    <linearGradient id="grad-bg" x1="0%" y1="0%" x2="100%" y2="100%">
      <stop offset="0%" stop-color="#0f172a" />
      <stop offset="100%" stop-color="#020617" />
    </linearGradient>
    <linearGradient id="grad-red" x1="0%" y1="0%" x2="100%" y2="100%">
      <stop offset="0%" stop-color="#e50914" />
      <stop offset="100%" stop-color="#990000" />
    </linearGradient>
    <linearGradient id="grad-blue" x1="0%" y1="0%" x2="100%" y2="100%">
      <stop offset="0%" stop-color="#38bdf8" />
      <stop offset="100%" stop-color="#0284c7" />
    </linearGradient>
    <linearGradient id="grad-purple" x1="0%" y1="0%" x2="100%" y2="100%">
      <stop offset="0%" stop-color="#c084fc" />
      <stop offset="100%" stop-color="#7e22ce" />
    </linearGradient>
    <linearGradient id="grad-green" x1="0%" y1="0%" x2="100%" y2="100%">
      <stop offset="0%" stop-color="#4ade80" />
      <stop offset="100%" stop-color="#15803d" />
    </linearGradient>
    <linearGradient id="grad-yellow" x1="0%" y1="0%" x2="100%" y2="100%">
      <stop offset="0%" stop-color="#facc15" />
      <stop offset="100%" stop-color="#ca8a04" />
    </linearGradient>

    <!-- Filters for Glow & Shadows -->
    <filter id="glow" x="-20%" y="-20%" width="140%" height="140%">
      <feGaussianBlur stdDeviation="8" result="blur" />
      <feComposite in="SourceGraphic" in2="blur" operator="over" />
    </filter>
    <filter id="card-shadow" x="-10%" y="-10%" width="120%" height="120%">
      <feDropShadow dx="0" dy="8" stdDeviation="6" flood-color="#000000" flood-opacity="0.6" />
    </filter>

    <!-- Markers for Connectors -->
    <marker id="arrow-blue" viewBox="0 0 10 10" refX="6" refY="5" markerWidth="6" markerHeight="6" orient="auto-start-reverse">
      <path d="M 0 1 L 10 5 L 0 9 z" fill="#38bdf8" />
    </marker>
    <marker id="arrow-green" viewBox="0 0 10 10" refX="6" refY="5" markerWidth="6" markerHeight="6" orient="auto-start-reverse">
      <path d="M 0 1 L 10 5 L 0 9 z" fill="#4ade80" />
    </marker>
    <marker id="arrow-yellow" viewBox="0 0 10 10" refX="6" refY="5" markerWidth="6" markerHeight="6" orient="auto-start-reverse">
      <path d="M 0 1 L 10 5 L 0 9 z" fill="#facc15" />
    </marker>
    <marker id="arrow-red" viewBox="0 0 10 10" refX="6" refY="5" markerWidth="6" markerHeight="6" orient="auto-start-reverse">
      <path d="M 0 1 L 10 5 L 0 9 z" fill="#e50914" />
    </marker>
  </defs>

  <!-- Background Base -->
  <rect width="1400" height="850" fill="url(#grad-bg)" />

  <!-- Grid Background Overlay -->
  <g stroke="#1e293b" stroke-width="0.5" opacity="0.4">
    <path d="M 0,100 L 1400,100 M 0,200 L 1400,200 M 0,300 L 1400,300 M 0,400 L 1400,400 M 0,500 L 1400,500 M 0,600 L 1400,600 M 0,700 L 1400,700" />
    <path d="M 100,0 L 100,850 M 200,0 L 200,850 M 300,0 L 300,850 M 400,0 L 400,850 M 500,0 L 500,850 M 600,0 L 600,850 M 700,0 L 700,850 M 800,0 L 800,850 M 900,0 L 900,850 M 1000,0 L 1000,850 M 1100,0 L 1100,850 M 1200,0 L 1200,850 M 1300,0 L 1300,850" />
  </g>

  <!-- Header Section -->
  <g transform="translate(60, 45)">
    <!-- StreamPulse Logo Icon -->
    <rect x="0" y="0" width="42" height="42" rx="8" fill="url(#grad-red)" filter="url(#glow)" />
    <path d="M 12,21 L 18,21 L 22,10 L 26,32 L 30,21 L 34,21" fill="none" stroke="#ffffff" stroke-width="3" stroke-linecap="round" stroke-linejoin="round" />
    
    <text x="56" y="24" fill="#ffffff" font-size="24" font-weight="800" letter-spacing="1">STREAMPULSE 2026</text>
    <text x="56" y="42" fill="#94a3b8" font-size="12" font-weight="600" letter-spacing="0.5">ENTERPRISE LIVE STREAMING DATA PLATFORM &amp; ANALYTICS ENGINEERING ARCHITECTURE</text>

    <!-- Badges -->
    <g transform="translate(950, 6)">
      <rect x="0" y="0" width="90" height="26" rx="13" fill="#1e293b" stroke="#334155" />
      <text x="45" y="17" fill="#38bdf8" font-size="11" font-weight="700" text-anchor="middle">LIVE 2026</text>
      
      <rect x="100" y="0" width="110" height="26" rx="13" fill="#1e293b" stroke="#334155" />
      <text x="155" y="17" fill="#4ade80" font-size="11" font-weight="700" text-anchor="middle">KIMBALL GALAXY</text>

      <rect x="220" y="0" width="105" height="26" rx="13" fill="#1e293b" stroke="#334155" />
      <text x="272" y="17" fill="#facc15" font-size="11" font-weight="700" text-anchor="middle">DIRECTQUERY</text>
    </g>
  </g>

  <!-- ========================================================================= -->
  <!-- LAYER 1: MULTI-SOURCE INGESTION (X: 60 to 300) -->
  <!-- ========================================================================= -->
  <g transform="translate(60, 120)">
    <!-- Container Box -->
    <rect width="250" height="660" rx="16" fill="#0f172a" stroke="#334155" stroke-width="1.5" filter="url(#card-shadow)" />
    <rect width="250" height="40" rx="16" fill="#1e293b" />
    <text x="20" y="25" fill="#f8fafc" font-size="14" font-weight="700">1. MULTI-SOURCE INGESTION</text>

    <!-- Source 1: Live Web Scraper -->
    <g transform="translate(18, 55)">
      <rect width="214" height="120" rx="10" fill="#1e293b" stroke="#e50914" stroke-width="1.5" />
      <circle cx="20" cy="22" r="6" fill="#e50914" />
      <text x="35" y="26" fill="#ffffff" font-size="13" font-weight="700">Live 2026 Scraper</text>
      <text x="15" y="50" fill="#94a3b8" font-size="11">• Wikipedia 2026 Films &amp; TV</text>
      <text x="15" y="68" fill="#94a3b8" font-size="11">• Netflix Tudum Newsroom</text>
      <text x="15" y="86" fill="#94a3b8" font-size="11">• RSS Feeds &amp; Press Drops</text>
      <rect x="15" y="96" width="90" height="16" rx="4" fill="#3b0764" />
      <text x="60" y="108" fill="#c084fc" font-size="9" font-weight="700" text-anchor="middle">BEAUTIFULSOUP</text>
    </g>

    <!-- Source 2: TMDb / IMDb APIs -->
    <g transform="translate(18, 190)">
      <rect width="214" height="110" rx="10" fill="#1e293b" stroke="#38bdf8" stroke-width="1" />
      <circle cx="20" cy="22" r="6" fill="#38bdf8" />
      <text x="35" y="26" fill="#ffffff" font-size="13" font-weight="700">TMDb / IMDb Metadata</text>
      <text x="15" y="50" fill="#94a3b8" font-size="11">• TMDb API v3 Discovery</text>
      <text x="15" y="68" fill="#94a3b8" font-size="11">• Cast, Crew &amp; Genres</text>
      <text x="15" y="86" fill="#94a3b8" font-size="11">• Vote Avg &amp; Popularity</text>
    </g>

    <!-- Source 3: Kaggle Historical Archive -->
    <g transform="translate(18, 315)">
      <rect width="214" height="100" rx="10" fill="#1e293b" stroke="#64748b" stroke-width="1" />
      <circle cx="20" cy="22" r="6" fill="#94a3b8" />
      <text x="35" y="26" fill="#ffffff" font-size="13" font-weight="700">Historical Catalog Archive</text>
      <text x="15" y="50" fill="#94a3b8" font-size="11">• 8,807 Titles (1925-2024)</text>
      <text x="15" y="68" fill="#94a3b8" font-size="11">• Baseline Quality Anchor</text>
    </g>

    <!-- Source 4: Dirty External Training Datasets -->
    <g transform="translate(18, 430)">
      <rect width="214" height="210" rx="10" fill="#1e293b" stroke="#facc15" stroke-width="1.5" />
      <circle cx="20" cy="22" r="6" fill="#facc15" />
      <text x="35" y="26" fill="#ffffff" font-size="13" font-weight="700">Unmerged Dirty Datasets</text>
      
      <text x="15" y="50" fill="#facc15" font-size="11" font-weight="600">A. CSV IMDb Ratings</text>
      <text x="25" y="66" fill="#94a3b8" font-size="10">Shorthand '1.4M', duplicate rows</text>
      
      <text x="15" y="90" fill="#facc15" font-size="11" font-weight="600">B. Wide Parquet Viewership</text>
      <text x="25" y="106" fill="#94a3b8" font-size="10">Wide monthly cols, dirty country</text>
      
      <text x="15" y="130" fill="#facc15" font-size="11" font-weight="600">C. JSON Budget Feed</text>
      <text x="25" y="146" fill="#94a3b8" font-size="10">Dirty currencies '$150M', nested</text>

      <rect x="15" y="170" width="184" height="24" rx="4" fill="#422006" stroke="#ca8a04" />
      <text x="107" y="186" fill="#fde047" font-size="10" font-weight="700" text-anchor="middle">POWER QUERY TRAINING</text>
    </g>
  </g>

  <!-- ========================================================================= -->
  <!-- LAYER 2: TRANSFORMATION & DATA PROFILING (X: 350 to 570) -->
  <!-- ========================================================================= -->
  <g transform="translate(350, 120)">
    <rect width="230" height="660" rx="16" fill="#0f172a" stroke="#334155" stroke-width="1.5" filter="url(#card-shadow)" />
    <rect width="230" height="40" rx="16" fill="#1e293b" />
    <text x="20" y="25" fill="#f8fafc" font-size="14" font-weight="700">2. TRANSFORMATION &amp; DQ</text>

    <!-- Entity Resolution Engine -->
    <g transform="translate(15, 55)">
      <rect width="200" height="150" rx="10" fill="#1e293b" stroke="#38bdf8" stroke-width="1" />
      <text x="15" y="25" fill="#38bdf8" font-size="13" font-weight="700">Entity Resolution</text>
      <text x="15" y="48" fill="#94a3b8" font-size="11">• Fuzzy RapidFuzz Matching</text>
      <text x="15" y="66" fill="#94a3b8" font-size="11">• Title Normalization (NFKD)</text>
      <text x="15" y="84" fill="#94a3b8" font-size="11">• Match Confidence Scoring</text>
      <text x="15" y="102" fill="#94a3b8" font-size="11">• Release Window Validation</text>
      <rect x="15" y="118" width="170" height="20" rx="4" fill="#0c4a6e" />
      <text x="100" y="132" fill="#7dd3fc" font-size="10" font-weight="700" text-anchor="middle">98.5% HIGH CONFIDENCE</text>
    </g>

    <!-- Data Quality & Profiling Engine -->
    <g transform="translate(15, 220)">
      <rect width="200" height="175" rx="10" fill="#1e293b" stroke="#4ade80" stroke-width="1" />
      <text x="15" y="25" fill="#4ade80" font-size="13" font-weight="700">Automated DQ Profiler</text>
      <text x="15" y="48" fill="#94a3b8" font-size="11">• Completeness &amp; Uniqueness</text>
      <text x="15" y="66" fill="#94a3b8" font-size="11">• Range &amp; Outlier Telemetry</text>
      <text x="15" y="84" fill="#94a3b8" font-size="11">• Schema Drift Detection</text>
      <text x="15" y="102" fill="#94a3b8" font-size="11">• Catalog Era Tagging</text>
      <rect x="15" y="120" width="170" height="42" rx="6" fill="#052e16" stroke="#15803d" />
      <text x="100" y="136" fill="#86efac" font-size="11" font-weight="700" text-anchor="middle">QUALITY SCORE: 100%</text>
      <text x="100" y="152" fill="#4ade80" font-size="9" text-anchor="middle">Zero Unhandled Nulls</text>
    </g>

    <!-- Real-Time Streaming Daemon -->
    <g transform="translate(15, 410)">
      <rect width="200" height="230" rx="10" fill="#1e293b" stroke="#c084fc" stroke-width="1" />
      <text x="15" y="25" fill="#c084fc" font-size="13" font-weight="700">Real-Time Daemon</text>
      <text x="15" y="48" fill="#94a3b8" font-size="11">• Continuous Polling Cycle</text>
      <text x="15" y="66" fill="#94a3b8" font-size="11">• Trending Velocity Calc</text>
      <text x="15" y="84" fill="#94a3b8" font-size="11">• Days to Streaming Lag</text>
      <text x="15" y="102" fill="#94a3b8" font-size="11">• Viewership Calibration</text>
      <text x="15" y="120" fill="#94a3b8" font-size="11">• Automated Schema Sync</text>

      <rect x="15" y="145" width="170" height="65" rx="6" fill="#2e1065" stroke="#7e22ce" />
      <text x="100" y="165" fill="#e9d5ff" font-size="11" font-weight="700" text-anchor="middle">REPLICATION FREQ</text>
      <text x="100" y="182" fill="#c084fc" font-size="13" font-weight="800" text-anchor="middle">EVERY 24 HOURS</text>
      <text x="100" y="198" fill="#a855f7" font-size="9" text-anchor="middle">Cron: 0 6 * * * (6:00 AM UTC)</text>
    </g>
  </g>

  <!-- ========================================================================= -->
  <!-- LAYER 3: STORAGE & WAREHOUSE LAYER (X: 620 to 920) -->
  <!-- ========================================================================= -->
  <g transform="translate(620, 120)">
    <rect width="310" height="660" rx="16" fill="#0f172a" stroke="#334155" stroke-width="1.5" filter="url(#card-shadow)" />
    <rect width="310" height="40" rx="16" fill="#1e293b" />
    <text x="20" y="25" fill="#f8fafc" font-size="14" font-weight="700">3. WAREHOUSE &amp; LAKEHOUSE</text>

    <!-- PostgreSQL Kimball Galaxy Schema -->
    <g transform="translate(15, 55)">
      <rect width="280" height="340" rx="10" fill="#1e293b" stroke="#3b82f6" stroke-width="1.5" />
      <rect x="10" y="10" width="260" height="26" rx="6" fill="#1d4ed8" />
      <text x="140" y="27" fill="#ffffff" font-size="12" font-weight="700" text-anchor="middle">PostgreSQL 15 Kimball Galaxy Model</text>

      <text x="15" y="55" fill="#60a5fa" font-size="11" font-weight="700">DIMENSIONS (SCD Type 1 &amp; Bridges):</text>
      <text x="25" y="73" fill="#f8fafc" font-size="11">• <tspan fill="#38bdf8">dim_titles</tspan> (PK: title_key, budget, era)</text>
      <text x="25" y="91" fill="#f8fafc" font-size="11">• <tspan fill="#38bdf8">dim_genres</tspan> + <tspan fill="#94a3b8">bridge_title_genre</tspan></text>
      <text x="25" y="109" fill="#f8fafc" font-size="11">• <tspan fill="#38bdf8">dim_crew</tspan> + <tspan fill="#94a3b8">bridge_title_crew</tspan></text>
      <text x="25" y="127" fill="#f8fafc" font-size="11">• <tspan fill="#38bdf8">dim_date</tspan> (2,922 calendar days)</text>

      <text x="15" y="152" fill="#4ade80" font-size="11" font-weight="700">FACT TABLES (Multi-Granularity):</text>
      <text x="25" y="170" fill="#f8fafc" font-size="11">• <tspan fill="#4ade80">fact_catalog_ratings</tspan> (Snapshot)</text>
      <text x="25" y="188" fill="#f8fafc" font-size="11">• <tspan fill="#4ade80">fact_streaming_performance</tspan> (Views)</text>

      <text x="15" y="215" fill="#facc15" font-size="11" font-weight="700">DIRECTQUERY REPORTING VIEWS:</text>
      <rect x="15" y="225" width="250" height="42" rx="4" fill="#0f172a" stroke="#ca8a04" />
      <text x="25" y="242" fill="#fde047" font-size="10" font-weight="700">• vw_powerbi_catalog_pulse</text>
      <text x="25" y="258" fill="#fde047" font-size="10" font-weight="700">• vw_powerbi_performance_matrix</text>

      <rect x="15" y="280" width="250" height="45" rx="6" fill="#1e1b4b" stroke="#4338ca" />
      <text x="140" y="298" fill="#a5b4fc" font-size="10" font-weight="700" text-anchor="middle">AIRBYTE 0.50.36 REPLICATION</text>
      <text x="140" y="314" fill="#c7d2fe" font-size="9" text-anchor="middle">Automated CDC / File-to-Staging Ingestion</text>
    </g>

    <!-- Parquet Lakehouse Layer -->
    <g transform="translate(15, 410)">
      <rect width="280" height="230" rx="10" fill="#1e293b" stroke="#10b981" stroke-width="1.5" />
      <rect x="10" y="10" width="260" height="26" rx="6" fill="#047857" />
      <text x="140" y="27" fill="#ffffff" font-size="12" font-weight="700" text-anchor="middle">Columnar Parquet Lakehouse</text>

      <text x="15" y="55" fill="#34d399" font-size="11" font-weight="700">Partitioned Snappy Parquet Datasets:</text>
      <text x="25" y="75" fill="#f8fafc" font-size="11">• <tspan fill="#6ee7b7">dim_titles.parquet</tspan></text>
      <text x="25" y="93" fill="#f8fafc" font-size="11">• <tspan fill="#6ee7b7">dim_date.parquet</tspan></text>
      <text x="25" y="111" fill="#f8fafc" font-size="11">• <tspan fill="#6ee7b7">dim_genres.parquet</tspan></text>
      <text x="25" y="129" fill="#f8fafc" font-size="11">• <tspan fill="#6ee7b7">fact_catalog_ratings.parquet</tspan></text>
      <text x="25" y="147" fill="#f8fafc" font-size="11">• <tspan fill="#6ee7b7">fact_streaming_performance.parquet</tspan></text>
      <text x="25" y="165" fill="#f8fafc" font-size="11">• <tspan fill="#6ee7b7">powerbi_reporting_pulse.parquet</tspan></text>

      <rect x="15" y="185" width="250" height="32" rx="4" fill="#064e3b" stroke="#059669" />
      <text x="140" y="205" fill="#a7f3d0" font-size="10" font-weight="700" text-anchor="middle">PyArrow High Compression Engine</text>
    </g>
  </g>

  <!-- ========================================================================= -->
  <!-- LAYER 4: POWER BI ANALYTICS & DAX (X: 970 to 1340) -->
  <!-- ========================================================================= -->
  <g transform="translate(970, 120)">
    <rect width="370" height="660" rx="16" fill="#0f172a" stroke="#334155" stroke-width="1.5" filter="url(#card-shadow)" />
    <rect width="370" height="40" rx="16" fill="#1e293b" />
    <text x="20" y="25" fill="#f8fafc" font-size="14" font-weight="700">4. POWER BI ANALYTICS &amp; DAX</text>

    <!-- Power Query M ETL Layer -->
    <g transform="translate(15, 55)">
      <rect width="340" height="150" rx="10" fill="#1e293b" stroke="#facc15" stroke-width="1.5" />
      <text x="15" y="25" fill="#facc15" font-size="13" font-weight="700">Power Query (M Language) ETL</text>
      <text x="15" y="48" fill="#94a3b8" font-size="11">• Dynamic Unpivot on Wide Monthly Metrics</text>
      <text x="15" y="66" fill="#94a3b8" font-size="11">• Shorthand Vote String Parser ('1.4M' -> Int)</text>
      <text x="15" y="84" fill="#94a3b8" font-size="11">• JSON Infobox &amp; Nested Record Expansion</text>
      <text x="15" y="102" fill="#94a3b8" font-size="11">• Non-Breaking Whitespace &amp; Casing Scrubbing</text>
      <text x="15" y="120" fill="#94a3b8" font-size="11">• Snapshot Deduplication via Timestamp Grouping</text>
      <rect x="15" y="128" width="310" height="14" rx="3" fill="#422006" />
      <text x="170" y="139" fill="#fde047" font-size="9" font-weight="700" text-anchor="middle">ZERO PYTHON DEPENDENCY IN FRONTEND</text>
    </g>

    <!-- Advanced DAX Measures Engine -->
    <g transform="translate(15, 220)">
      <rect width="340" height="230" rx="10" fill="#1e293b" stroke="#38bdf8" stroke-width="1" />
      <text x="15" y="25" fill="#38bdf8" font-size="13" font-weight="700">25+ Enterprise DAX Measures</text>
      
      <text x="15" y="48" fill="#e2e8f0" font-size="11" font-weight="600">1. Bayesian Audience Index:</text>
      <text x="25" y="64" fill="#94a3b8" font-size="10">Calibrated weighted score vs small sample size</text>

      <text x="15" y="84" fill="#e2e8f0" font-size="11" font-weight="600">2. Budget ROI &amp; Cost Per View Hour:</text>
      <text x="25" y="100" fill="#94a3b8" font-size="10">Effective $/hr &amp; Budget Efficiency Multiplier</text>

      <text x="15" y="120" fill="#e2e8f0" font-size="11" font-weight="600">3. Time Intelligence &amp; Velocity:</text>
      <text x="25" y="136" fill="#94a3b8" font-size="10">YTD Growth %, Rolling 28-Day, Lag Days to Drop</text>

      <text x="15" y="156" fill="#e2e8f0" font-size="11" font-weight="600">4. Pareto 80/20 Concentration:</text>
      <text x="25" y="172" fill="#94a3b8" font-size="10">Cumulative Viewership Share % Dynamic Filter</text>

      <text x="15" y="192" fill="#e2e8f0" font-size="11" font-weight="600">5. USERELATIONSHIP &amp; TREATAS:</text>
      <text x="25" y="208" fill="#94a3b8" font-size="10">Theatrical vs Drop Date &amp; Cross-Genre Affinity</text>
    </g>

    <!-- Executive Dashboard Views -->
    <g transform="translate(15, 465)">
      <rect width="340" height="175" rx="10" fill="#1e293b" stroke="#4ade80" stroke-width="1.5" />
      <text x="15" y="25" fill="#4ade80" font-size="13" font-weight="700">Executive Dashboard Experience</text>

      <rect x="15" y="38" width="150" height="55" rx="6" fill="#0f172a" stroke="#334155" />
      <text x="25" y="56" fill="#94a3b8" font-size="10">TOTAL VIEW HOURS</text>
      <text x="25" y="80" fill="#38bdf8" font-size="18" font-weight="800">1.84 B hrs</text>

      <rect x="175" y="38" width="150" height="55" rx="6" fill="#0f172a" stroke="#334155" />
      <text x="185" y="56" fill="#94a3b8" font-size="10">BUDGET ROI MULTIPLIER</text>
      <text x="185" y="80" fill="#4ade80" font-size="18" font-weight="800">2.65 x</text>

      <rect x="15" y="102" width="310" height="55" rx="6" fill="#064e3b" stroke="#10b981" />
      <text x="170" y="124" fill="#a7f3d0" font-size="11" font-weight="700" text-anchor="middle">DIRECTQUERY LIVE AUTO-REFRESH</text>
      <text x="170" y="142" fill="#ffffff" font-size="10" text-anchor="middle">Real-time sub-second visual updates on schema sync</text>
    </g>
  </g>

  <!-- ========================================================================= -->
  <!-- CONNECTORS & FLOW ARROWS -->
  <!-- ========================================================================= -->
  <!-- Ingestion to Transformation -->
  <path d="M 310,230 L 350,230" fill="none" stroke="#38bdf8" stroke-width="2" marker-end="url(#arrow-blue)" />
  <path d="M 310,400 L 350,400" fill="none" stroke="#38bdf8" stroke-width="2" marker-end="url(#arrow-blue)" />
  <path d="M 310,550 L 350,550" fill="none" stroke="#facc15" stroke-width="2" marker-end="url(#arrow-yellow)" stroke-dasharray="4,4" />

  <!-- Transformation to Warehouse -->
  <path d="M 580,230 L 620,230" fill="none" stroke="#4ade80" stroke-width="2" marker-end="url(#arrow-green)" />
  <path d="M 580,500 L 620,500" fill="none" stroke="#4ade80" stroke-width="2" marker-end="url(#arrow-green)" />

  <!-- Warehouse to Power BI -->
  <path d="M 930,280 L 970,280" fill="none" stroke="#facc15" stroke-width="2.5" marker-end="url(#arrow-yellow)" />
  <path d="M 930,520 L 970,520" fill="none" stroke="#4ade80" stroke-width="2" marker-end="url(#arrow-green)" />

  <!-- DirectQuery Live Indicator -->
  <g transform="translate(935, 255)">
    <rect x="-10" y="-12" width="65" height="18" rx="4" fill="#78350f" />
    <text x="22" y="1" fill="#fde047" font-size="9" font-weight="800" text-anchor="middle">DirectQuery</text>
  </g>
</svg>
